<svg xmlns="http://www.w3.org/2000/svg" width="150" height="39" viewBox="0 0 150 39.4"><path d="M106.9 35.6v-1.9h1.2c0.6 0 1 0.4 1 0.9 0 0.6-0.4 0.9-1 0.9H106.9zM106.9 36.9h1.4c0.8 0 1.3-0.2 1.7-0.6 0.4-0.4 0.6-0.9 0.6-1.6 0-0.7-0.3-1.3-0.7-1.8 -0.4-0.4-0.9-0.5-1.8-0.5h-2.7v6.8h1.5V36.9zM99.9 33.6c1.1 0 1.8 0.8 1.8 2.3 0 1.4-0.7 2.2-1.8 2.2 -1.1 0-1.8-0.8-1.8-2.2C98.1 34.4 98.8 33.6 99.9 33.6M99.9 32.3c-0.9 0-1.7 0.3-2.3 0.9 -0.7 0.6-1 1.6-1 2.7 0 2.1 1.4 3.5 3.4 3.5 2 0 3.4-1.4 3.4-3.5C103.3 33.7 101.9 32.3 99.9 32.3M93 36.3v2.9h1.5v-6.8h-1.5v2.6h-2.5v-2.5h-1.5v6.8h1.5v-2.9H93zM86.8 34.5c-0.1-0.6-0.2-1-0.4-1.3 -0.4-0.6-1.2-1-2.3-1 -1.7 0-2.7 0.8-2.7 2.1 0 0.6 0.2 1.1 0.5 1.3 0.3 0.3 0.8 0.5 1.5 0.6l1.2 0.3c0.5 0.1 0.7 0.4 0.7 0.7 0 0.5-0.5 0.8-1.3 0.8 -0.9 0-1.4-0.3-1.4-1.1H81.2c0 1.5 1.1 2.4 2.9 2.4 1.8 0 2.8-0.9 2.8-2.3 0-0.5-0.2-1-0.5-1.3 -0.3-0.3-0.7-0.5-1.5-0.7l-1.4-0.3c-0.4-0.1-0.6-0.3-0.6-0.6 0-0.4 0.4-0.7 1.2-0.7 0.8 0 1.2 0.3 1.2 0.9v0.1H86.8zM73.3 37.7c-0.4 0.4-0.7 0.5-1.1 0.5 -0.5 0-0.8-0.3-0.8-0.8 0-0.4 0.2-0.7 1-1.1L73.3 37.7zM72.6 34.7c-0.3-0.4-0.5-0.6-0.5-0.8 0-0.3 0.2-0.5 0.6-0.5 0.3 0 0.6 0.2 0.6 0.5C73.2 34.3 73 34.5 72.6 34.7M74.4 35.6c0 0.5-0.1 0.9-0.3 1.1l-0.8-1.1c0.9-0.7 1.1-1 1.1-1.6 0-0.9-0.8-1.6-1.8-1.6 -1 0-1.7 0.7-1.7 1.6 0 0.5 0.2 1 0.7 1.5 -1.1 0.7-1.5 1.3-1.5 2.1 0 1.1 0.9 1.9 2 1.9 0.7 0 1.3-0.2 2-0.7l0.4 0.6h1.6l-1.2-1.5c0.4-0.7 0.7-1.3 0.8-2.1H74.4zM62.5 36.3v2.9h1.5v-6.8H62.5v2.6h-2.5v-2.5h-1.5v6.8h1.5v-2.9H62.5zM56.4 34.5c-0.1-0.6-0.2-1-0.4-1.3 -0.4-0.6-1.2-1-2.3-1 -1.7 0-2.7 0.8-2.7 2.1 0 0.6 0.2 1.1 0.5 1.3 0.3 0.3 0.8 0.5 1.5 0.6l1.2 0.3c0.5 0.1 0.7 0.4 0.7 0.7 0 0.5-0.5 0.8-1.3 0.8 -0.9 0-1.4-0.3-1.4-1.1h-1.5c0 1.5 1.1 2.4 2.9 2.4 1.8 0 2.8-0.9 2.8-2.3 0-0.5-0.2-1-0.5-1.3 -0.3-0.3-0.7-0.5-1.5-0.7l-1.4-0.3c-0.4-0.1-0.6-0.3-0.6-0.6 0-0.4 0.4-0.7 1.2-0.7 0.8 0 1.2 0.3 1.2 0.9v0.1H56.4zM48.8 32.4h-1.5v6.8h1.5V32.4zM40.9 37.9v-4.2h1.1c0.6 0 1 0.2 1.3 0.7 0.2 0.4 0.3 0.8 0.3 1.4 0 0.6-0.1 1.1-0.3 1.4 -0.3 0.5-0.7 0.7-1.4 0.7H40.9zM39.4 39.2h2.4c1.3 0 2-0.3 2.6-0.9 0.6-0.6 0.9-1.5 0.9-2.5 0-1-0.3-1.8-0.8-2.4 -0.6-0.7-1.3-0.9-2.7-0.9h-2.3V39.2zM150 19.6v-2.8h-5.4v-5.6h4.4V8.4h-4.4V3.1h5.3V0.2h-8.5v19.4H150zM138.1 0.2h-9.7v2.8h3.2v16.6h3.2V3.1h3.2V0.2zM117.8 19.6V7l4.2 12.6h3.1V0.2h-2.9v12l-4.1-12h-3.2v19.4H117.8zM110.9 19.6v-2.8h-5.4v-5.6h4.4V8.4h-4.4V3.1h5.3V0.2h-8.5v19.4H110.9zM98.9 16.7h-5V0.2h-3.2v19.4h8.2V16.7zM74.9 12.6l1.4-8.6 1.4 8.6H74.9zM78.7 19.6h3.3L78.3 0.2h-4l-3.6 19.4h3.1l0.7-4.3h3.6L78.7 19.6zM60.1 19.6V7l4.2 12.6h3.1V0.2h-2.9v12l-4.1-12h-3.2v19.4H60.1zM52.6 0.2H49.4v19.4h3.2V0.2zM46 0.2h-9.7v2.8h3.2v16.6h3.2V3.1h3.2V0.2zM33.4 7.2V4c0-2.9-2.1-4-4.8-4h-0.1c-2.7 0-4.8 1.1-4.8 4v2.6c0 2 1.1 2.9 3 4l2.3 1.3c1 0.5 1.3 1 1.3 2v1.5c0 1.2-0.7 1.7-1.7 1.7 -1 0-1.7-0.5-1.7-1.7v-2.9h-3.2v3.4c0 3 1.9 4.1 4.8 4.1h0.1c2.9 0 4.8-1 4.8-4v-2.8c0-2.1-1.1-2.9-3-4l-2.3-1.3c-0.9-0.5-1.2-1-1.2-2V4.4c0-1.2 0.7-1.7 1.6-1.7 0.9 0 1.6 0.4 1.6 1.7v2.7H33.4zM20.5 19.6v-2.8H15.1v-5.6h4.4V8.4H15.1V3.1h5.3V0.2h-8.5v19.4H20.5zM0 19.6h3.2v-8.3h4.3V8.5H3.2V3.1H8.4V0.2H0V19.6z" fill="#6C6965" /></svg>