<?xml version="1.0" encoding="utf-8"?>
<!-- Generator: Adobe Illustrator 21.1.0, SVG Export Plug-In . SVG Version: 6.00 Build 0)  -->
<svg version="1.1" id="Layer_1" xmlns="http://www.w3.org/2000/svg" xmlns:xlink="http://www.w3.org/1999/xlink" x="0px" y="0px"
	 viewBox="0 0 85 40" style="enable-background:new 0 0 85 40;" xml:space="preserve">
<g>
	<polygon points="21.4,25.4 13.6,25.4 13.6,13.6 21.2,13.6 21.2,15.8 16.3,15.8 16.3,18.2 20.9,18.2 20.9,20.4 16.3,20.4 16.3,23.1 
		21.4,23.1 	"/>
	<path d="M38,20.1c-0.8,0.6-1.9,0.9-3.1,0.9h-1.5v4.4h-2.8V13.6h4.2c1.2,0,2.3,0.2,3.1,0.9c0.8,0.6,1.2,1.6,1.2,2.8
		C39.2,18.5,38.8,19.5,38,20.1L38,20.1z M35.9,16c-0.3-0.2-0.7-0.3-1.3-0.3h-1.1v3.2h1.1c0.6,0,1-0.1,1.3-0.3
		c0.3-0.2,0.6-0.7,0.6-1.3S36.2,16.3,35.9,16L35.9,16z"/>
	<polygon points="51.5,25.4 48.7,25.4 48.7,13.6 51.5,13.6 	"/>
	<path d="M71.4,24.1c-0.6,0.6-1.8,1.6-4.3,1.6c-3.5,0-6.2-2.3-6.2-6.1c0-3.8,2.8-6.1,6.2-6.1c2.4,0,3.7,1,4.1,1.3l-0.8,2.3
		c-0.2-0.3-1.5-1.2-3-1.2c-2,0-3.5,1.3-3.5,3.6s1.6,3.6,3.5,3.6c1.5,0,2.5-0.6,3.2-1.3L71.4,24.1L71.4,24.1z"/>
	<polygon points="72.1,40 0,40 0,0 85,0 85,27.1 83.6,27.1 83.6,1.4 1.4,1.4 1.4,38.6 72.1,38.6 	"/>
	<path d="M85,38.8c0,0.6-0.5,1.2-1.2,1.2c-0.6,0-1.2-0.5-1.2-1.2s0.5-1.2,1.2-1.2C84.5,37.7,85,38.2,85,38.8L85,38.8z"/>
</g>
</svg>
